<svg width="63" height="52" viewBox="0 0 63 52" fill="none" xmlns="http://www.w3.org/2000/svg">
<path d="M40.3769 45.8781H5.85469C3.64415 45.8781 1.8457 43.9771 1.8457 41.6403V12.445C1.8457 10.1083 3.64415 8.20724 5.85469 8.20724C6.36435 8.20724 6.77754 7.77045 6.77754 7.23169C6.77754 6.69279 6.36435 6.25613 5.85469 6.25613C2.62643 6.25613 0 9.03242 0 12.445V41.6403C0 45.0529 2.62643 47.8292 5.85469 47.8292H40.3769C40.8866 47.8292 41.2998 47.3925 41.2998 46.8536C41.2998 46.315 40.8866 45.8781 40.3769 45.8781Z" fill="#C5AC2D"/>
<path d="M57.1453 6.25613H26.5681C26.0585 6.25613 25.6453 6.69279 25.6453 7.23169C25.6453 7.77045 26.0585 8.20724 26.5681 8.20724H57.1453C59.3559 8.20724 61.1543 10.1083 61.1543 12.445V41.6403C61.1543 43.9771 59.3559 45.8781 57.1453 45.8781H56.159C55.6493 45.8781 55.2362 46.3149 55.2362 46.8536C55.2362 47.3925 55.6493 47.8292 56.159 47.8292H57.1453C60.3736 47.8292 63 45.0529 63 41.6403V12.445C63 9.03242 60.3736 6.25613 57.1453 6.25613Z" fill="#C5AC2D"/>
<path d="M9.80005 8.20725C12.5544 8.20725 14.7954 10.576 14.7954 13.4878C14.7954 14.0266 15.2086 14.4634 15.7182 14.4634C16.2279 14.4634 16.6411 14.0266 16.6411 13.4878C16.6411 10.5761 18.882 8.20725 21.6364 8.20725C22.1461 8.20725 22.5593 7.77046 22.5593 7.2317C22.5593 6.6928 22.1461 6.25615 21.6364 6.25615C18.882 6.25615 16.6411 3.88725 16.6411 0.975551C16.6411 0.436787 16.2279 0 15.7182 0C15.2086 0 14.7954 0.436787 14.7954 0.975551C14.7954 3.88725 12.5546 6.25615 9.80005 6.25615C9.29039 6.25615 8.8772 6.6928 8.8772 7.2317C8.8772 7.77046 9.29039 8.20725 9.80005 8.20725ZM15.7182 4.60005C16.3173 5.68903 17.1776 6.59837 18.2077 7.2317C17.1776 7.8649 16.3173 8.77437 15.7182 9.86321C15.1191 8.77437 14.2589 7.8649 13.2289 7.2317C14.2588 6.59837 15.1191 5.68903 15.7182 4.60005Z" fill="#C5AC2D"/>
<path d="M52.2136 45.8781C50.5469 45.8781 49.1911 44.4447 49.1911 42.683C49.1911 42.1442 48.7779 41.7074 48.2682 41.7074C47.7586 41.7074 47.3454 42.1442 47.3454 42.683C47.3454 44.4448 45.9894 45.8781 44.3228 45.8781C43.8131 45.8781 43.3999 46.3149 43.3999 46.8537C43.3999 47.3926 43.8131 47.8292 44.3228 47.8292C45.9894 47.8292 47.3454 49.2626 47.3454 51.0245C47.3454 51.5632 47.7586 52 48.2682 52C48.7779 52 49.1911 51.5632 49.1911 51.0245C49.1911 49.2626 50.5471 47.8292 52.2136 47.8292C52.7233 47.8292 53.1365 47.3926 53.1365 46.8537C53.1365 46.315 52.7233 45.8781 52.2136 45.8781ZM48.2681 48.0127C47.9632 47.5676 47.5927 47.176 47.1717 46.8537C47.5926 46.5313 47.9632 46.1397 48.2681 45.6947C48.573 46.1397 48.9435 46.5315 49.3646 46.8537C48.9435 47.176 48.573 47.5678 48.2681 48.0127Z" fill="#C5AC2D"/>
<path d="M13.9397 17.7256C13.43 17.7256 13.0168 18.1624 13.0168 18.7012V35.3701C13.0168 35.8453 13.3407 36.2512 13.7837 36.3316C13.8478 36.3432 13.9406 36.3601 15.6524 36.3601C16.4832 36.3601 17.6958 36.3561 19.4713 36.3457C19.9809 36.3427 20.3918 35.9034 20.3889 35.3647C20.3861 34.8277 19.9735 34.3946 19.4662 34.3946C19.4645 34.3946 19.4626 34.3946 19.4609 34.3946C18.0615 34.4028 16.0123 34.4111 14.8627 34.4081V18.7012C14.8625 18.1624 14.4494 17.7256 13.9397 17.7256Z" fill="#C5AC2D"/>
<path d="M39.1507 36.1816C39.3123 36.3019 39.4977 36.3598 39.6814 36.3598C39.9714 36.3598 40.2569 36.2157 40.4366 35.946L45.6354 28.1449L50.8265 35.9454C51.0061 36.2154 51.2918 36.3598 51.5821 36.3598C51.7656 36.3598 51.9509 36.3021 52.1123 36.182C52.5292 35.872 52.6293 35.2634 52.3361 34.8229L46.7646 26.4506L51.5545 19.263C51.848 18.8225 51.7482 18.2139 51.3316 17.9036C50.9149 17.5932 50.3392 17.6988 50.0456 18.1392L45.6365 24.7553L41.234 18.1398C40.9407 17.6989 40.365 17.5932 39.9482 17.9032C39.5313 18.2131 39.4311 18.8217 39.7243 19.2623L44.5073 26.4496L38.9277 34.8222C38.6343 35.2628 38.7341 35.8714 39.1507 36.1816Z" fill="#C5AC2D"/>
<path d="M25.9793 35.3268C26.9915 36.0105 28.1369 36.3579 29.3839 36.3597H29.3942C30.4777 36.3597 31.4913 36.1124 32.4073 35.6249C34.6852 34.4121 35.8893 32.5255 35.8893 30.1689V18.7012C35.8893 18.1624 35.4761 17.7256 34.9664 17.7256C34.4568 17.7256 34.0436 18.1624 34.0436 18.7012V30.1689C34.0436 31.784 33.2367 32.9987 31.5771 33.8823C30.9209 34.2317 30.1865 34.4087 29.394 34.4086C29.3914 34.4086 29.3888 34.4086 29.3862 34.4086C28.4962 34.4073 27.6843 34.163 26.9729 33.6825C25.5361 32.7122 24.9231 31.6648 24.9231 30.1808V18.7012C24.9231 18.1624 24.5099 17.7256 24.0002 17.7256C23.4906 17.7256 23.0774 18.1624 23.0774 18.7012V30.1808C23.0775 32.3248 24.0267 34.008 25.9793 35.3268Z" fill="#C5AC2D"/>
</svg>
